<svg xmlns="http://www.w3.org/2000/svg" viewBox="0 0 435.08 103.73"><path d="M17.47,102.34h0A17.47,17.47,0,0,1,0,84.87V1.39H17.47Z"/><path d="M61.78,1.39,90.9,78.77,120,1.39h22.67v101H125.15V69.06l1.73-44.52-29.81,77.8H90.8a9.12,9.12,0,0,1-8.52-5.86L54.78,24.61l1.73,44.45v33.28H39V1.39Z"/><path d="M219.86,78.83h-39.1l-8.18,23.51H154.34L192.48,1.39h15.74l38.2,101h0a25.83,25.83,0,0,1-24.37-17.27ZM185.68,64.69h29.26L200.31,22.81Z"/><path d="M335.24,89.24a33.56,33.56,0,0,1-15.19,10.81,61.92,61.92,0,0,1-22,3.68A43.44,43.44,0,0,1,275.54,98,38.26,38.26,0,0,1,260.46,81.5q-5.31-10.71-5.51-25V48.6q0-22.87,10.95-35.74T296.48,0q16.84,0,26.76,8.35t11.93,24H318q-2.91-18.24-21.14-18.24-11.79,0-17.93,8.49t-6.34,24.9v7.76q0,16.35,6.9,25.39t19.17,9q13.46,0,19.14-6.1V63.86H297a13.31,13.31,0,0,1,13.31-13.31h25Z"/><path d="M435.08,54.5q0,14.84-5.13,26a38.81,38.81,0,0,1-14.66,17.2,43,43,0,0,1-43.82,0,39.38,39.38,0,0,1-14.84-17.09q-5.24-11.1-5.31-25.59V49.37q0-14.77,5.24-26.07A39.3,39.3,0,0,1,371.33,6,40.18,40.18,0,0,1,393.2,0a40.6,40.6,0,0,1,21.88,5.93A38.85,38.85,0,0,1,429.81,23q5.2,11.13,5.27,25.9Zm-17.54-5.27c0-11.19-.79-21-6.34-25.73-10.49-8.95-30.6,25.87-33,28.44-5.17,5.55,1.49-34.41-2.78-28.47s-6.46,14.34-6.55,25.2V54.5q0,16.64,6.48,25.72c4.32,6.06,24.88-19.78,32.56-19.78s-.83,25.91,3.36,20,6.27-14.56,6.27-25.93Z"/></svg>